<?xml version="1.0" encoding="UTF-8"?>
<svg xmlns="http://www.w3.org/2000/svg" version="1.1" width="800" height="600">
<line x1="0" y1="0" x2="500" y2="0" stroke="#f0f0f0" stroke-width="2"/>
<line x1="500" y1="0" x2="500" y2="400" stroke="#f0f0f0" stroke-width="2"/>
<line x1="500" y1="400" x2="0" y2="400" stroke="#f0f0f0" stroke-width="2"/>
<line x1="0" y1="400" x2="0" y2="0" stroke="#f0f0f0" stroke-width="2"/>
<ellipse cx="120" cy="110" rx="50" ry="50" fill="#ff0000"/>
<ellipse cx="200" cy="100" rx="40" ry="40" fill="#00ff00"/>
<ellipse cx="300" cy="100" rx="30" ry="30" fill="#0000ff"/>
<line x1="50" y1="200" x2="150" y2="200" stroke="#ffaa00" stroke-width="2"/>
<line x1="150" y1="200" x2="150" y2="250" stroke="#ffaa00" stroke-width="2"/>
<line x1="150" y1="250" x2="50" y2="250" stroke="#ffaa00" stroke-width="2"/>
<line x1="50" y1="250" x2="50" y2="200" stroke="#ffaa00" stroke-width="2"/>
<line x1="200" y1="200" x2="350" y2="200" stroke="#00aaff" stroke-width="2"/>
<line x1="350" y1="200" x2="350" y2="275" stroke="#00aaff" stroke-width="2"/>
<line x1="350" y1="275" x2="200" y2="275" stroke="#00aaff" stroke-width="2"/>
<line x1="200" y1="275" x2="200" y2="200" stroke="#00aaff" stroke-width="2"/>
<line x1="400" y1="50" x2="350" y2="150" stroke="#ff00ff" stroke-width="2"/>
<line x1="350" y1="150" x2="450" y2="150" stroke="#ff00ff" stroke-width="2"/>
<line x1="450" y1="150" x2="400" y2="50" stroke="#ff00ff" stroke-width="2"/>
<line x1="50" y1="300" x2="150" y2="300" stroke="#00ffff" stroke-width="2"/>
<line x1="150" y1="300" x2="100" y2="350" stroke="#00ffff" stroke-width="2"/>
<line x1="100" y1="350" x2="50" y2="300" stroke="#00ffff" stroke-width="2"/>
<line x1="0" y1="0" x2="500" y2="400" stroke="#000000" stroke-width="2"/>
<line x1="0" y1="400" x2="500" y2="0" stroke="#555555" stroke-width="2"/>
<text x="250" y="350" font-size="24" fill="#000000">Hello, Shapes!</text>
<text x="50" y="50" font-size="18" fill="#ff00ff">Top Left</text>
</svg>
