<?xml version="1.0" encoding="UTF-8"?>
<svg xmlns="http://www.w3.org/2000/svg" width="800" height="600" viewBox="0 0 800 600">
<rect x="0" y="0" width="800" height="600" fill="white" stroke="lightgray" stroke-width="1" />
<line x1="0" y1="480" x2="800" y2="480" stroke="green" stroke-width="2" />
<line x1="800" y1="480" x2="800" y2="600" stroke="green" stroke-width="2" />
<line x1="800" y1="600" x2="0" y2="600" stroke="green" stroke-width="2" />
<line x1="0" y1="600" x2="0" y2="480" stroke="green" stroke-width="2" />
<line x1="545" y1="480" x2="575" y2="480" stroke="yellow" stroke-width="2" />
<line x1="575" y1="480" x2="575" y2="600" stroke="yellow" stroke-width="2" />
<line x1="575" y1="600" x2="545" y2="600" stroke="yellow" stroke-width="2" />
<line x1="545" y1="600" x2="545" y2="480" stroke="yellow" stroke-width="2" />
<line x1="418" y1="218" x2="682" y2="218" stroke="black" stroke-width="2" />
<line x1="682" y1="218" x2="682" y2="482" stroke="black" stroke-width="2" />
<line x1="682" y1="482" x2="418" y2="482" stroke="black" stroke-width="2" />
<line x1="418" y1="482" x2="418" y2="218" stroke="black" stroke-width="2" />
<line x1="420" y1="220" x2="680" y2="220" stroke="yellow" stroke-width="2" />
<line x1="680" y1="220" x2="680" y2="480" stroke="yellow" stroke-width="2" />
<line x1="680" y1="480" x2="420" y2="480" stroke="yellow" stroke-width="2" />
<line x1="420" y1="480" x2="420" y2="220" stroke="yellow" stroke-width="2" />
<line x1="405" y1="222" x2="550" y2="110" stroke="black" stroke-width="2" />
<line x1="550" y1="110" x2="695" y2="222" stroke="black" stroke-width="2" />
<line x1="695" y1="222" x2="405" y2="222" stroke="black" stroke-width="2" />
<line x1="410" y1="220" x2="550" y2="120" stroke="red" stroke-width="2" />
<line x1="550" y1="120" x2="690" y2="220" stroke="red" stroke-width="2" />
<line x1="690" y1="220" x2="410" y2="220" stroke="red" stroke-width="2" />
<line x1="607" y1="137" x2="648" y2="137" stroke="black" stroke-width="2" />
<line x1="648" y1="137" x2="648" y2="223" stroke="black" stroke-width="2" />
<line x1="648" y1="223" x2="607" y2="223" stroke="black" stroke-width="2" />
<line x1="607" y1="223" x2="607" y2="137" stroke="black" stroke-width="2" />
<line x1="610" y1="140" x2="645" y2="140" stroke="red" stroke-width="2" />
<line x1="645" y1="140" x2="645" y2="220" stroke="red" stroke-width="2" />
<line x1="645" y1="220" x2="610" y2="220" stroke="red" stroke-width="2" />
<line x1="610" y1="220" x2="610" y2="140" stroke="red" stroke-width="2" />
<ellipse cx="660" cy="110" rx="8" ry="8" stroke="black" stroke-width="2" fill="none" />
<ellipse cx="678" cy="92" rx="10" ry="10" stroke="black" stroke-width="2" fill="none" />
<ellipse cx="698" cy="72" rx="12" ry="12" stroke="black" stroke-width="2" fill="none" />
<line x1="532" y1="328" x2="588" y2="328" stroke="black" stroke-width="2" />
<line x1="588" y1="328" x2="588" y2="482" stroke="black" stroke-width="2" />
<line x1="588" y1="482" x2="532" y2="482" stroke="black" stroke-width="2" />
<line x1="532" y1="482" x2="532" y2="328" stroke="black" stroke-width="2" />
<line x1="535" y1="330" x2="585" y2="330" stroke="black" stroke-width="2" />
<line x1="585" y1="330" x2="585" y2="480" stroke="black" stroke-width="2" />
<line x1="585" y1="480" x2="535" y2="480" stroke="black" stroke-width="2" />
<line x1="535" y1="480" x2="535" y2="330" stroke="black" stroke-width="2" />
<ellipse cx="578" cy="405" rx="3" ry="3" stroke="black" stroke-width="2" fill="none" />
<line x1="452" y1="262" x2="518" y2="262" stroke="black" stroke-width="2" />
<line x1="518" y1="262" x2="518" y2="328" stroke="black" stroke-width="2" />
<line x1="518" y1="328" x2="452" y2="328" stroke="black" stroke-width="2" />
<line x1="452" y1="328" x2="452" y2="262" stroke="black" stroke-width="2" />
<line x1="458" y1="268" x2="512" y2="268" stroke="blue" stroke-width="2" />
<line x1="512" y1="268" x2="512" y2="322" stroke="blue" stroke-width="2" />
<line x1="512" y1="322" x2="458" y2="322" stroke="blue" stroke-width="2" />
<line x1="458" y1="322" x2="458" y2="268" stroke="blue" stroke-width="2" />
<line x1="484" y1="268" x2="486" y2="268" stroke="black" stroke-width="2" />
<line x1="486" y1="268" x2="486" y2="322" stroke="black" stroke-width="2" />
<line x1="486" y1="322" x2="484" y2="322" stroke="black" stroke-width="2" />
<line x1="484" y1="322" x2="484" y2="268" stroke="black" stroke-width="2" />
<line x1="458" y1="294" x2="512" y2="294" stroke="black" stroke-width="2" />
<line x1="512" y1="294" x2="512" y2="296" stroke="black" stroke-width="2" />
<line x1="512" y1="296" x2="458" y2="296" stroke="black" stroke-width="2" />
<line x1="458" y1="296" x2="458" y2="294" stroke="black" stroke-width="2" />
<line x1="582" y1="262" x2="648" y2="262" stroke="black" stroke-width="2" />
<line x1="648" y1="262" x2="648" y2="328" stroke="black" stroke-width="2" />
<line x1="648" y1="328" x2="582" y2="328" stroke="black" stroke-width="2" />
<line x1="582" y1="328" x2="582" y2="262" stroke="black" stroke-width="2" />
<line x1="588" y1="268" x2="642" y2="268" stroke="blue" stroke-width="2" />
<line x1="642" y1="268" x2="642" y2="322" stroke="blue" stroke-width="2" />
<line x1="642" y1="322" x2="588" y2="322" stroke="blue" stroke-width="2" />
<line x1="588" y1="322" x2="588" y2="268" stroke="blue" stroke-width="2" />
<line x1="614" y1="268" x2="616" y2="268" stroke="black" stroke-width="2" />
<line x1="616" y1="268" x2="616" y2="322" stroke="black" stroke-width="2" />
<line x1="616" y1="322" x2="614" y2="322" stroke="black" stroke-width="2" />
<line x1="614" y1="322" x2="614" y2="268" stroke="black" stroke-width="2" />
<line x1="588" y1="294" x2="642" y2="294" stroke="black" stroke-width="2" />
<line x1="642" y1="294" x2="642" y2="296" stroke="black" stroke-width="2" />
<line x1="642" y1="296" x2="588" y2="296" stroke="black" stroke-width="2" />
<line x1="588" y1="296" x2="588" y2="294" stroke="black" stroke-width="2" />
<ellipse cx="210" cy="415" rx="77" ry="47" stroke="black" stroke-width="2" fill="none" />
<ellipse cx="210" cy="415" rx="75" ry="45" stroke="pink" stroke-width="2" fill="none" />
<ellipse cx="135" cy="385" rx="47" ry="40" stroke="black" stroke-width="2" fill="none" />
<ellipse cx="135" cy="385" rx="45" ry="38" stroke="pink" stroke-width="2" fill="none" />
<line x1="110" y1="365" x2="125" y2="330" stroke="black" stroke-width="2" />
<line x1="125" y1="330" x2="140" y2="365" stroke="black" stroke-width="2" />
<line x1="140" y1="365" x2="110" y2="365" stroke="black" stroke-width="2" />
<line x1="112" y1="365" x2="125" y2="338" stroke="pink" stroke-width="2" />
<line x1="125" y1="338" x2="138" y2="365" stroke="pink" stroke-width="2" />
<line x1="138" y1="365" x2="112" y2="365" stroke="pink" stroke-width="2" />
<line x1="150" y1="365" x2="165" y2="330" stroke="black" stroke-width="2" />
<line x1="165" y1="330" x2="180" y2="365" stroke="black" stroke-width="2" />
<line x1="180" y1="365" x2="150" y2="365" stroke="black" stroke-width="2" />
<line x1="152" y1="365" x2="165" y2="338" stroke="pink" stroke-width="2" />
<line x1="165" y1="338" x2="178" y2="365" stroke="pink" stroke-width="2" />
<line x1="178" y1="365" x2="152" y2="365" stroke="pink" stroke-width="2" />
<ellipse cx="122" cy="385" rx="7" ry="10" stroke="black" stroke-width="2" fill="none" />
<ellipse cx="148" cy="385" rx="7" ry="10" stroke="black" stroke-width="2" fill="none" />
<ellipse cx="122" cy="388" rx="3" ry="4" stroke="black" stroke-width="2" fill="none" />
<ellipse cx="148" cy="388" rx="3" ry="4" stroke="black" stroke-width="2" fill="none" />
<line x1="135" y1="402" x2="128" y2="412" stroke="red" stroke-width="2" />
<line x1="128" y1="412" x2="142" y2="412" stroke="red" stroke-width="2" />
<line x1="142" y1="412" x2="135" y2="402" stroke="red" stroke-width="2" />
<ellipse cx="128" cy="418" rx="6" ry="3" stroke="black" stroke-width="2" fill="none" />
<ellipse cx="142" cy="418" rx="6" ry="3" stroke="black" stroke-width="2" fill="none" />
<line x1="104" y1="405" x2="90" y2="402" stroke="black" stroke-width="2" />
<line x1="90" y1="402" x2="104" y2="399" stroke="black" stroke-width="2" />
<line x1="104" y1="399" x2="104" y2="405" stroke="black" stroke-width="2" />
<line x1="104" y1="410" x2="90" y2="410" stroke="black" stroke-width="2" />
<line x1="90" y1="410" x2="104" y2="410" stroke="black" stroke-width="2" />
<line x1="104" y1="410" x2="104" y2="410" stroke="black" stroke-width="2" />
<line x1="104" y1="415" x2="90" y2="418" stroke="black" stroke-width="2" />
<line x1="90" y1="418" x2="104" y2="421" stroke="black" stroke-width="2" />
<line x1="104" y1="421" x2="104" y2="415" stroke="black" stroke-width="2" />
<line x1="166" y1="405" x2="180" y2="402" stroke="black" stroke-width="2" />
<line x1="180" y1="402" x2="166" y2="399" stroke="black" stroke-width="2" />
<line x1="166" y1="399" x2="166" y2="405" stroke="black" stroke-width="2" />
<line x1="166" y1="410" x2="180" y2="410" stroke="black" stroke-width="2" />
<line x1="180" y1="410" x2="166" y2="410" stroke="black" stroke-width="2" />
<line x1="166" y1="410" x2="166" y2="410" stroke="black" stroke-width="2" />
<line x1="166" y1="415" x2="180" y2="418" stroke="black" stroke-width="2" />
<line x1="180" y1="418" x2="166" y2="421" stroke="black" stroke-width="2" />
<line x1="166" y1="421" x2="166" y2="415" stroke="black" stroke-width="2" />
<ellipse cx="175" cy="455" rx="12" ry="7" stroke="black" stroke-width="2" fill="none" />
<ellipse cx="175" cy="455" rx="10" ry="5" stroke="pink" stroke-width="2" fill="none" />
<ellipse cx="200" cy="462" rx="12" ry="7" stroke="black" stroke-width="2" fill="none" />
<ellipse cx="200" cy="462" rx="10" ry="5" stroke="pink" stroke-width="2" fill="none" />
<ellipse cx="230" cy="462" rx="12" ry="7" stroke="black" stroke-width="2" fill="none" />
<ellipse cx="230" cy="462" rx="10" ry="5" stroke="pink" stroke-width="2" fill="none" />
<ellipse cx="255" cy="455" rx="12" ry="7" stroke="black" stroke-width="2" fill="none" />
<ellipse cx="255" cy="455" rx="10" ry="5" stroke="pink" stroke-width="2" fill="none" />
<line x1="295" y1="393" x2="327.043" y2="411.5" stroke="black" stroke-width="2" />
<line x1="327.043" y1="411.5" x2="327.043" y2="448.5" stroke="black" stroke-width="2" />
<line x1="327.043" y1="448.5" x2="295" y2="467" stroke="black" stroke-width="2" />
<line x1="295" y1="467" x2="262.957" y2="448.5" stroke="black" stroke-width="2" />
<line x1="262.957" y1="448.5" x2="262.957" y2="411.5" stroke="black" stroke-width="2" />
<line x1="262.957" y1="411.5" x2="295" y2="393" stroke="black" stroke-width="2" />
<line x1="292" y1="395" x2="322.311" y2="412.5" stroke="pink" stroke-width="2" />
<line x1="322.311" y1="412.5" x2="322.311" y2="447.5" stroke="pink" stroke-width="2" />
<line x1="322.311" y1="447.5" x2="292" y2="465" stroke="pink" stroke-width="2" />
<line x1="292" y1="465" x2="261.689" y2="447.5" stroke="pink" stroke-width="2" />
<line x1="261.689" y1="447.5" x2="261.689" y2="412.5" stroke="pink" stroke-width="2" />
<line x1="261.689" y1="412.5" x2="292" y2="395" stroke="pink" stroke-width="2" />
<line x1="312" y1="381" x2="332.785" y2="393" stroke="pink" stroke-width="2" />
<line x1="332.785" y1="393" x2="332.785" y2="417" stroke="pink" stroke-width="2" />
<line x1="332.785" y1="417" x2="312" y2="429" stroke="pink" stroke-width="2" />
<line x1="312" y1="429" x2="291.215" y2="417" stroke="pink" stroke-width="2" />
<line x1="291.215" y1="417" x2="291.215" y2="393" stroke="pink" stroke-width="2" />
<line x1="291.215" y1="393" x2="312" y2="381" stroke="pink" stroke-width="2" />
</svg>
